<svg xmlns="http://www.w3.org/2000/svg" xmlns:xlink="http://www.w3.org/1999/xlink" width="1080" zoomAndPan="magnify" viewBox="0 0 810 809.999993" height="1080" preserveAspectRatio="xMidYMid meet" version="1.0"><path fill="#808080" d="M 587.765625 537.101562 C 636.269531 480.078125 662.90625 408.550781 662.90625 332.839844 C 662.90625 248.425781 630.027344 169.070312 570.359375 109.382812 C 510.691406 49.695312 431.363281 16.816406 346.957031 16.816406 C 262.570312 16.816406 183.242188 49.695312 123.574219 109.382812 C 0.425781 232.601562 0.425781 433.089844 123.574219 556.296875 C 183.242188 615.984375 262.570312 648.859375 346.957031 648.859375 C 422.664062 648.859375 494.160156 622.226562 551.171875 573.707031 L 763.238281 785.859375 C 768.289062 790.914062 774.914062 793.441406 781.535156 793.441406 C 788.15625 793.441406 794.777344 790.914062 799.832031 785.859375 C 809.941406 775.746094 809.941406 759.363281 799.832031 749.25 Z M 160.167969 519.6875 C 57.1875 416.671875 57.1875 249.019531 160.167969 145.988281 C 263.152344 42.996094 430.730469 42.945312 533.765625 145.988281 C 583.652344 195.90625 611.148438 262.253906 611.148438 332.839844 C 611.148438 403.421875 583.652344 469.785156 533.765625 519.6875 C 430.730469 622.746094 263.152344 622.695312 160.167969 519.6875 Z M 160.167969 519.6875 " fill-opacity="1" fill-rule="nonzero"/></svg>